Run_20002
nRows=4
nColumns=173

# SIMM Motion File Header:
name Run_20002
datacolumns 173
datarows 4
otherdata 1
range 2.90000000 2.93000000
endheader
time	pelvis_tilt	pelvis_list	pelvis_rotation	pelvis_tx	pelvis_ty	pelvis_tz	hip_flexion_r	hip_adduction_r	hip_rotation_r	knee_angle_r	ankle_angle_r	hip_flexion_l	hip_adduction_l	hip_rotation_l	knee_angle_l	ankle_angle_l	lumbar_extension	lumbar_bending	lumbar_rotation	arm_flex_r	arm_add_r	arm_rot_r	elbow_flex_r	pro_sup_r	arm_flex_l	arm_add_l	arm_rot_l	elbow_flex_l	pro_sup_l	subtalar_angle_r	mtp_angle_r	subtalar_angle_l	mtp_angle_l	wrist_flex_r	wrist_dev_r	wrist_flex_l	wrist_dev_l	LASI_tx	LASI_ty	LASI_tz	RASI_tx	RASI_ty	RASI_tz	LPSI_tx	LPSI_ty	LPSI_tz	RPSI_tx	RPSI_ty	RPSI_tz	RTH1_tx	RTH1_ty	RTH1_tz	RTH2_tx	RTH2_ty	RTH2_tz	RTH3_tx	RTH3_ty	RTH3_tz	LTH1_tx	LTH1_ty	LTH1_tz	LTH2_tx	LTH2_ty	LTH2_tz	LTH3_tx	LTH3_ty	LTH3_tz	RTB1_tx	RTB1_ty	RTB1_tz	RTB2_tx	RTB2_ty	RTB2_tz	RTB3_tx	RTB3_ty	RTB3_tz	RLMAL_tx	RLMAL_ty	RLMAL_tz	RMMAL_tx	RMMAL_ty	RMMAL_tz	LTB1_tx	LTB1_ty	LTB1_tz	LTB2_tx	LTB2_ty	LTB2_tz	LTB3_tx	LTB3_ty	LTB3_tz	RCAL_tx	RCAL_ty	RCAL_tz	RTOE_tx	RTOE_ty	RTOE_tz	RMT5_tx	RMT5_ty	RMT5_tz	LCAL_tx	LCAL_ty	LCAL_tz	LTOE_tx	LTOE_ty	LTOE_tz	LMT5_tx	LMT5_ty	LMT5_tz	LACR_tx	LACR_ty	LACR_tz	RACR_tx	RACR_ty	RACR_tz	CLAV_tx	CLAV_ty	CLAV_tz	C7_tx	C7_ty	C7_tz	LPSH_tx	LPSH_ty	LPSH_tz	RUA1_tx	RUA1_ty	RUA1_tz	RUA2_tx	RUA2_ty	RUA2_tz	RUA3_tx	RUA3_ty	RUA3_tz	RLEL_tx	RLEL_ty	RLEL_tz	RMEL_tx	RMEL_ty	RMEL_tz	LUA1_tx	LUA1_ty	LUA1_tz	LUA2_tx	LUA2_ty	LUA2_tz	LUA3_tx	LUA3_ty	LUA3_tz	LLEL_tx	LLEL_ty	LLEL_tz	LMEL_tx	LMEL_ty	LMEL_tz	RFAsuperior_tx	RFAsuperior_ty	RFAsuperior_tz	RFAradius_tx	RFAradius_ty	RFAradius_tz	RFAulna_tx	RFAulna_ty	RFAulna_tz	LFAsuperior_tx	LFAsuperior_ty	LFAsuperior_tz	LFAradius_tx	LFAradius_ty	LFAradius_tz	LFAulna_tx	LFAulna_ty	LFAulna_tz
      2.90000000	      0.50462351	      4.88184122	      3.15778150	      0.96654485	      0.99288874	     -0.48352418	     16.88598850	     -2.61444766	      2.03016048	    -79.17589380	     -0.64496994	     19.92065241	      9.45205508	      8.06050100	    -39.80233842	     21.01306899	     -8.35995941	     -6.84717885	      0.20914920	    -20.30633517	    -13.34779298	     -0.92269685	    100.73524376	    106.16542325	    -21.92604759	    -12.58785254	     -3.78129273	    105.27163431	     88.22720760	      0.00000000	      0.00000000	      0.00000000	      0.00000000	      0.00000000	      0.00000000	      0.00000000	      0.00000000	      0.97021326	      1.03615110	     -0.59529400	      0.98658239	      1.02857935	     -0.35878802	      0.80786489	      1.06251716	     -0.51181737	      0.81349388	      1.05591000	     -0.42355868	      0.94152091	      0.76373376	     -0.31485448	      1.02944435	      0.70994760	     -0.33839745	      0.98100738	      0.59961005	     -0.34122265	      0.91034112	      0.81877024	     -0.65035686	      1.00934226	      0.73111655	     -0.64925403	      0.98529382	      0.62174775	     -0.63497583	      0.93295507	      0.39114299	     -0.37248872	      0.86110954	      0.39921338	     -0.33680756	      0.76832970	      0.31061063	     -0.37327669	      0.65145133	      0.28944249	     -0.35512507	      0.68249389	      0.26927633	     -0.43273747	      1.04008629	      0.39225900	     -0.60023893	      0.93467040	      0.31287191	     -0.62999099	      0.96928880	      0.21291406	     -0.58086408	      0.60745695	      0.31798944	     -0.42608691	      0.68790350	      0.11671772	     -0.37208056	      0.63825388	      0.17601027	     -0.31107084	      0.82790611	      0.08681315	     -0.53656188	      1.05496645	      0.07229843	     -0.55730154	      0.99320420	      0.05572488	     -0.62469157	      0.92571292	      1.51196730	     -0.65934471	      0.94349738	      1.51378582	     -0.33514190	      1.01249704	      1.45641338	     -0.47199215	      0.89578404	      1.54534424	     -0.49855242	      0.84494703	      1.47373961	     -0.66390257	      0.89274248	      1.37179861	     -0.23693982	      0.81022181	      1.32544208	     -0.24851710	      0.81481271	      1.27554025	     -0.19735529	      0.82762916	      1.20865373	     -0.17085316	      0.78743597	      1.19462677	     -0.24760219	      0.83656289	      1.38373598	     -0.72254567	      0.77201340	      1.31371893	     -0.68679363	      0.77753548	      1.26285463	     -0.74195180	      0.76978819	      1.18459865	     -0.76025681	      0.75393348	      1.18105251	     -0.67277758	      0.87128767	      1.14316697	     -0.19537605	      1.03676596	      1.12894957	     -0.31284227	      1.02479784	      1.07349849	     -0.27568287	      0.83408532	      1.11770740	     -0.72665737	      1.00177769	      1.14158703	     -0.68016609	      0.99218770	      1.07427092	     -0.68878518
      2.91000000	      0.67366910	      4.89626992	      2.88714777	      0.96405744	      0.99105402	     -0.48359598	     18.97450413	     -2.35463064	      2.78535210	    -80.39159077	      0.73249675	     18.87641765	      9.39422536	      7.89826923	    -40.44607403	     22.47055263	     -8.84135315	     -7.05297979	     -0.62926256	    -20.43504929	    -13.38711185	     -1.61926780	     96.95875045	    109.10944173	    -19.01029954	    -13.23848537	     -2.59188864	    101.95679029	     89.08034434	      0.00000000	      0.00000000	      0.00000000	      0.00000000	      0.00000000	      0.00000000	      0.00000000	      0.00000000	      0.96802943	      1.03371149	     -0.59576954	      0.98341234	      1.02774397	     -0.35835902	      0.80536450	      1.06095204	     -0.51297926	      0.81125904	      1.05407899	     -0.42515397	      0.94511491	      0.76313793	     -0.31627584	      1.03609131	      0.71266922	     -0.33952257	      0.99162816	      0.60069277	     -0.34221897	      0.90649642	      0.81684408	     -0.65126764	      1.00377744	      0.72669710	     -0.64987183	      0.97760990	      0.61838028	     -0.63531513	      0.94874758	      0.39285699	     -0.37538618	      0.87695708	      0.39982367	     -0.33742707	      0.78568664	      0.30893403	     -0.37392357	      0.66905645	      0.28607715	     -0.35518956	      0.70043590	      0.26662676	     -0.43285870	      1.02842342	      0.38796048	     -0.60046205	      0.92120296	      0.31135565	     -0.63063113	      0.95257847	      0.21094447	     -0.58106828	      0.62309339	      0.31261036	     -0.42602128	      0.71237602	      0.11533528	     -0.37151753	      0.66063537	      0.17261641	     -0.31057161	      0.80778757	      0.08727229	     -0.53734908	      1.03501337	      0.07197550	     -0.55794841	      0.97306389	      0.05559663	     -0.62531890	      0.92771338	      1.50901222	     -0.65919840	      0.94112149	      1.51251397	     -0.33461261	      1.01076964	      1.45417031	     -0.47079583	      0.89449552	      1.54352476	     -0.49877472	      0.84710636	      1.47138882	     -0.66477741	      0.88714149	      1.37169956	     -0.23732563	      0.80479668	      1.32596666	     -0.25218772	      0.80800887	      1.27637770	     -0.20028760	      0.81916732	      1.20935119	     -0.17301166	      0.78106434	      1.19534639	     -0.24996247	      0.84209645	      1.37729276	     -0.72334397	      0.78014488	      1.30270329	     -0.69277450	      0.79123801	      1.25280717	     -0.74839477	      0.78781751	      1.17465093	     -0.76664195	      0.76707629	      1.16964967	     -0.68030049	      0.85984310	      1.13987074	     -0.19316423	      1.02753337	      1.10982113	     -0.30554071	      1.01175173	      1.05855816	     -0.26398506	      0.85033628	      1.10711890	     -0.73213267	      1.01590815	      1.12888762	     -0.67832065	      1.00556610	      1.06182964	     -0.68891502
      2.92000000	      0.92457230	      4.93859534	      2.67321042	      0.96179041	      0.99031525	     -0.48376305	     20.84401510	     -2.22918114	      3.36983133	    -81.05187412	      1.91623047	     17.55567006	      9.38870118	      7.87948150	    -40.77505656	     23.64065473	     -9.44531533	     -7.20656817	     -1.66955989	    -20.51967068	    -13.63666775	     -1.90813667	     93.73566218	    112.09466538	    -16.32789750	    -13.78278598	     -1.55290470	     99.51875824	     89.81006193	      0.00000000	      0.00000000	      0.00000000	      0.00000000	      0.00000000	      0.00000000	      0.00000000	      0.00000000	      0.96598340	      1.03239263	     -0.59629575	      0.98056833	      1.02781120	     -0.35835311	      0.80310260	      1.06042170	     -0.51406533	      0.80886616	      1.05323256	     -0.42635872	      0.94864942	      0.76369114	     -0.31716467	      1.04222080	      0.71625592	     -0.34001399	      1.00171745	      0.60285506	     -0.34280645	      0.90217122	      0.81597119	     -0.65195632	      0.99845525	      0.72360855	     -0.64994317	      0.97005238	      0.61627928	     -0.63609377	      0.96434086	      0.39525077	     -0.37761098	      0.89279704	      0.40051970	     -0.33785792	      0.80383485	      0.30691829	     -0.37415134	      0.68747005	      0.28115585	     -0.35522752	      0.71965977	      0.26271652	     -0.43282438	      1.01581829	      0.38458164	     -0.60066488	      0.90649286	      0.31087530	     -0.63098539	      0.93551499	      0.20962410	     -0.58149297	      0.63985428	      0.30555400	     -0.42592458	      0.73847323	      0.11305217	     -0.37079269	      0.68408247	      0.16790891	     -0.31016024	      0.78760120	      0.08780778	     -0.53803797	      1.01497462	      0.07172502	     -0.55846131	      0.95292251	      0.05546905	     -0.62583317	      0.92984486	      1.50721109	     -0.65894699	      0.93889667	      1.51160775	     -0.33389847	      1.00911112	      1.45278467	     -0.46955311	      0.89331670	      1.54268108	     -0.49905832	      0.84955992	      1.47000208	     -0.66594882	      0.88208737	      1.37179115	     -0.23745973	      0.79962768	      1.32708160	     -0.25478541	      0.80139924	      1.27779888	     -0.20230598	      0.81060144	      1.21058055	     -0.17396107	      0.77425899	      1.19674923	     -0.25143427	      0.84761186	      1.37218313	     -0.72355580	      0.78915215	      1.29358227	     -0.69839403	      0.80530879	      1.24473952	     -0.75388674	      0.80590107	      1.16690397	     -0.77175675	      0.78033792	      1.16054760	     -0.68672377	      0.84845087	      1.13803768	     -0.19076970	      1.01664830	      1.09396199	     -0.29855833	      0.99815095	      1.04709727	     -0.25323356	      0.86719982	      1.09933746	     -0.73580391	      1.03012583	      1.12089614	     -0.67546311	      1.01999461	      1.05391976	     -0.68793997
      2.93000000	      1.18159355	      4.96828159	      2.55196636	      0.95957518	      0.99050486	     -0.48376967	     22.57775189	     -2.17372364	      3.78078070	    -81.18231588	      2.92494986	     16.04556946	      9.36742004	      7.98016821	    -40.74308545	     24.51578906	    -10.07818319	     -7.27127313	     -2.87758633	    -20.66810469	    -14.05473715	     -1.93551184	     91.30803256	    114.12943889	    -13.97476969	    -14.24792643	     -0.69436068	     98.30356418	     90.11970059	      0.00000000	      0.00000000	      0.00000000	      0.00000000	      0.00000000	      0.00000000	      0.00000000	      0.00000000	      0.96394842	      1.03213569	     -0.59653817	      0.97804111	      1.02847092	     -0.35853278	      0.80085164	      1.06078861	     -0.51458685	      0.80607751	      1.05342515	     -0.42661205	      0.95204413	      0.76532085	     -0.31738815	      1.04778724	      0.72074621	     -0.34007485	      1.01105120	      0.60626218	     -0.34301825	      0.89743055	      0.81578641	     -0.65231675	      0.99267688	      0.72159364	     -0.64972253	      0.96202029	      0.61489560	     -0.63690529	      0.97971316	      0.39819026	     -0.37878572	      0.90841200	      0.40126354	     -0.33808856	      0.82260083	      0.30481078	     -0.37382882	      0.70674263	      0.27486726	     -0.35519729	      0.73987164	      0.25778268	     -0.43279487	      1.00230223	      0.38196223	     -0.60095181	      0.89093467	      0.31086698	     -0.63104248	      0.91814707	      0.20864476	     -0.58176827	      0.65764006	      0.29690257	     -0.42580788	      0.76602455	      0.10997064	     -0.37010487	      0.70880261	      0.16208108	     -0.30968321	      0.76735871	      0.08835781	     -0.53841057	      0.99498925	      0.07133895	     -0.55878921	      0.93282818	      0.05543756	     -0.62625236	      0.93183324	      1.50674775	     -0.65868156	      0.93680876	      1.51105315	     -0.33313244	      1.00757882	      1.45223727	     -0.46832530	      0.89233767	      1.54262711	     -0.49915424	      0.85202729	      1.46921694	     -0.66750239	      0.87735167	      1.37215952	     -0.23726414	      0.79428757	      1.32893305	     -0.25603171	      0.79440916	      1.27987238	     -0.20322728	      0.80145385	      1.21267587	     -0.17371311	      0.76675475	      1.19886181	     -0.25191524	      0.85366527	      1.36861792	     -0.72410599	      0.79824094	      1.28714565	     -0.70337762	      0.81876923	      1.23903541	     -0.75807315	      0.82303347	      1.16149524	     -0.77551490	      0.79313313	      1.15407114	     -0.69163348	      0.83699217	      1.13801208	     -0.18803558	      1.00491500	      1.08276153	     -0.29125623	      0.98447564	      1.03942645	     -0.24357587	      0.88400857	      1.09474509	     -0.73732373	      1.04393595	      1.11865346	     -0.67151364	      1.03516902	      1.05156737	     -0.68516336
